<?xml version="1.0" encoding="UTF-8" standalone="no"?>
<svg width="1200" height="600" viewBox="0 0 1200 600" xmlns="http://www.w3.org/2000/svg">
  <defs>
    <linearGradient id="heroGradient" x1="0%" y1="0%" x2="100%" y2="100%">
      <stop offset="0%" stop-color="#0F172A" />
      <stop offset="100%" stop-color="#1E293B" />
    </linearGradient>
    <radialGradient id="glowGradient" cx="50%" cy="50%" r="50%" fx="50%" fy="50%">
      <stop offset="0%" stop-color="rgba(56, 189, 248, 0.3)" />
      <stop offset="100%" stop-color="rgba(15, 23, 42, 0)" />
    </radialGradient>
    <filter id="glow">
      <feGaussianBlur stdDeviation="5" result="blur" />
      <feComposite in="SourceGraphic" in2="blur" operator="over" />
    </filter>
  </defs>
  
  <!-- Background -->
  <rect width="1200" height="600" fill="url(#heroGradient)" />
  
  <!-- Glow Effect -->
  <circle cx="600" cy="300" r="300" fill="url(#glowGradient)" />
  
  <!-- Grid Lines -->
  <g stroke="rgba(255, 255, 255, 0.05)" stroke-width="1">
    <line x1="0" y1="100" x2="1200" y2="100" />
    <line x1="0" y1="200" x2="1200" y2="200" />
    <line x1="0" y1="300" x2="1200" y2="300" />
    <line x1="0" y1="400" x2="1200" y2="400" />
    <line x1="0" y1="500" x2="1200" y2="500" />
    
    <line x1="100" y1="0" x2="100" y2="600" />
    <line x1="300" y1="0" x2="300" y2="600" />
    <line x1="500" y1="0" x2="500" y2="600" />
    <line x1="700" y1="0" x2="700" y2="600" />
    <line x1="900" y1="0" x2="900" y2="600" />
    <line x1="1100" y1="0" x2="1100" y2="600" />
  </g>
  
  <!-- Battery Cells Pattern -->
  <g fill="#293548" stroke="rgba(56, 189, 248, 0.3)" stroke-width="1">
    <rect x="200" y="150" width="60" height="100" rx="5" />
    <rect x="280" y="150" width="60" height="100" rx="5" />
    <rect x="360" y="150" width="60" height="100" rx="5" />
    <rect x="440" y="150" width="60" height="100" rx="5" />
    <rect x="520" y="150" width="60" height="100" rx="5" />
    <rect x="600" y="150" width="60" height="100" rx="5" />
    <rect x="680" y="150" width="60" height="100" rx="5" />
    <rect x="760" y="150" width="60" height="100" rx="5" />
    <rect x="840" y="150" width="60" height="100" rx="5" />
    <rect x="920" y="150" width="60" height="100" rx="5" />
    
    <rect x="200" y="270" width="60" height="100" rx="5" />
    <rect x="280" y="270" width="60" height="100" rx="5" />
    <rect x="360" y="270" width="60" height="100" rx="5" />
    <rect x="440" y="270" width="60" height="100" rx="5" />
    <rect x="520" y="270" width="60" height="100" rx="5" />
    <rect x="600" y="270" width="60" height="100" rx="5" />
    <rect x="680" y="270" width="60" height="100" rx="5" />
    <rect x="760" y="270" width="60" height="100" rx="5" />
    <rect x="840" y="270" width="60" height="100" rx="5" />
    <rect x="920" y="270" width="60" height="100" rx="5" />
  </g>
  
  <!-- Glowing Elements -->
  <circle cx="230" cy="200" r="15" fill="#38BDF8" filter="url(#glow)" opacity="0.8" />
  <circle cx="590" cy="320" r="15" fill="#4ADE80" filter="url(#glow)" opacity="0.8" />
  <circle cx="870" cy="200" r="15" fill="#8B5CF6" filter="url(#glow)" opacity="0.8" />
  
  <!-- Energy Flow Lines -->
  <path d="M230,200 C400,150 500,350 590,320" stroke="#38BDF8" stroke-width="2" fill="none" filter="url(#glow)" opacity="0.6" />
  <path d="M590,320 C700,280 800,220 870,200" stroke="#4ADE80" stroke-width="2" fill="none" filter="url(#glow)" opacity="0.6" />
</svg>
